{
    "asset" : {
        "generator" : "Khronos glTF Blender I/O v1.3.48",
        "version" : "2.0"
    },
    "scene" : 0,
    "scenes" : [
        {
            "name" : "Scene",
            "nodes" : [
                0,
                1,
                2
            ]
        }
    ],
    "nodes" : [
        {
            "mesh" : 0,
            "name" : "sphere1",
            "rotation" : [
                0.7071068286895752,
                0,
                0,
                0.7071067094802856
            ]
        },
        {
            "name" : "Light",
            "rotation" : [
                0.16907575726509094,
                0.7558803558349609,
                -0.27217137813568115,
                0.570947527885437
            ],
            "translation" : [
                4.076245307922363,
                5.903861999511719,
                -1.0054539442062378
            ]
        },
        {
            "name" : "Camera",
            "rotation" : [
                0.483536034822464,
                0.33687159419059753,
                -0.20870360732078552,
                0.7804827094078064
            ],
            "translation" : [
                7.358891487121582,
                4.958309173583984,
                6.925790786743164
            ]
        }
    ],
    "materials" : [
        {
            "doubleSided" : true,
            "emissiveFactor" : [
                0,
                0,
                0
            ],
            "name" : "Glass",
            "pbrMetallicRoughness" : {
                "baseColorTexture" : {
                    "index" : 0,
                    "texCoord" : 0
                },
                "metallicRoughnessTexture" : {
                    "index" : 1,
                    "texCoord" : 0
                }
            }
        },
        {
            "doubleSided" : true,
            "emissiveFactor" : [
                0,
                0,
                0
            ],
            "name" : "Rubber",
            "pbrMetallicRoughness" : {
                "baseColorFactor" : [
                    0,
                    0,
                    0,
                    1
                ],
                "metallicFactor" : 0,
                "roughnessFactor" : 1
            }
        },
        {
            "doubleSided" : true,
            "emissiveFactor" : [
                0,
                0,
                0
            ],
            "name" : "White",
            "pbrMetallicRoughness" : {
                "baseColorFactor" : [
                    1,
                    1,
                    1,
                    1
                ],
                "metallicFactor" : 0,
                "roughnessFactor" : 0.7018576264381409
            }
        },
        {
            "doubleSided" : true,
            "emissiveFactor" : [
                0,
                0,
                0
            ],
            "name" : "black",
            "pbrMetallicRoughness" : {
                "baseColorFactor" : [
                    0,
                    0,
                    0,
                    1
                ],
                "metallicFactor" : 0,
                "roughnessFactor" : 1
            }
        }
    ],
    "meshes" : [
        {
            "name" : "sphere1",
            "primitives" : [
                {
                    "attributes" : {
                        "POSITION" : 0,
                        "NORMAL" : 1,
                        "TEXCOORD_0" : 2
                    },
                    "indices" : 3,
                    "material" : 0
                },
                {
                    "attributes" : {
                        "POSITION" : 4,
                        "NORMAL" : 5,
                        "TEXCOORD_0" : 6
                    },
                    "indices" : 7,
                    "material" : 1
                },
                {
                    "attributes" : {
                        "POSITION" : 8,
                        "NORMAL" : 9,
                        "TEXCOORD_0" : 10
                    },
                    "indices" : 11,
                    "material" : 2
                },
                {
                    "attributes" : {
                        "POSITION" : 12,
                        "NORMAL" : 13,
                        "TEXCOORD_0" : 14
                    },
                    "indices" : 15,
                    "material" : 3
                }
            ]
        }
    ],
    "textures" : [
        {
            "source" : 0
        },
        {
            "source" : 1
        }
    ],
    "images" : [
        {
            "mimeType" : "image/png",
            "name" : "HoverRacer_base",
            "uri" : "HoverRacer.png"
        },
        {
            "mimeType" : "image/png",
            "name" : "HoverRacer_maps",
            "uri" : "HoverRacer_maps.png"
        }
    ],
    "accessors" : [
        {
            "bufferView" : 0,
            "componentType" : 5126,
            "count" : 804,
            "max" : [
                2.4630792140960693,
                2.3356425762176514,
                -0.473571240901947
            ],
            "min" : [
                -2.4630792140960693,
                -2.72358775138855,
                -3.3467891216278076
            ],
            "type" : "VEC3"
        },
        {
            "bufferView" : 1,
            "componentType" : 5126,
            "count" : 804,
            "type" : "VEC3"
        },
        {
            "bufferView" : 2,
            "componentType" : 5126,
            "count" : 804,
            "type" : "VEC2"
        },
        {
            "bufferView" : 3,
            "componentType" : 5123,
            "count" : 2808,
            "type" : "SCALAR"
        },
        {
            "bufferView" : 4,
            "componentType" : 5126,
            "count" : 857,
            "max" : [
                2.865239381790161,
                3.1581344604492188,
                0
            ],
            "min" : [
                -2.865239381790161,
                -3.1819403171539307,
                -0.6047907471656799
            ],
            "type" : "VEC3"
        },
        {
            "bufferView" : 5,
            "componentType" : 5126,
            "count" : 857,
            "type" : "VEC3"
        },
        {
            "bufferView" : 6,
            "componentType" : 5126,
            "count" : 857,
            "type" : "VEC2"
        },
        {
            "bufferView" : 7,
            "componentType" : 5123,
            "count" : 3720,
            "type" : "SCALAR"
        },
        {
            "bufferView" : 8,
            "componentType" : 5126,
            "count" : 423,
            "max" : [
                2.3379976749420166,
                2.4661715030670166,
                -0.34580492973327637
            ],
            "min" : [
                -2.3379976749420166,
                -2.4926414489746094,
                -2.9574053287506104
            ],
            "type" : "VEC3"
        },
        {
            "bufferView" : 9,
            "componentType" : 5126,
            "count" : 423,
            "type" : "VEC3"
        },
        {
            "bufferView" : 10,
            "componentType" : 5126,
            "count" : 423,
            "type" : "VEC2"
        },
        {
            "bufferView" : 11,
            "componentType" : 5123,
            "count" : 1434,
            "type" : "SCALAR"
        },
        {
            "bufferView" : 12,
            "componentType" : 5126,
            "count" : 52,
            "max" : [
                2.3458118438720703,
                0.1991504579782486,
                -0.9788026809692383
            ],
            "min" : [
                -2.3458118438720703,
                -2.588559865951538,
                -2.0462639331817627
            ],
            "type" : "VEC3"
        },
        {
            "bufferView" : 13,
            "componentType" : 5126,
            "count" : 52,
            "type" : "VEC3"
        },
        {
            "bufferView" : 14,
            "componentType" : 5126,
            "count" : 52,
            "type" : "VEC2"
        },
        {
            "bufferView" : 15,
            "componentType" : 5123,
            "count" : 120,
            "type" : "SCALAR"
        }
    ],
    "bufferViews" : [
        {
            "buffer" : 0,
            "byteLength" : 9648,
            "byteOffset" : 0
        },
        {
            "buffer" : 0,
            "byteLength" : 9648,
            "byteOffset" : 9648
        },
        {
            "buffer" : 0,
            "byteLength" : 6432,
            "byteOffset" : 19296
        },
        {
            "buffer" : 0,
            "byteLength" : 5616,
            "byteOffset" : 25728
        },
        {
            "buffer" : 0,
            "byteLength" : 10284,
            "byteOffset" : 31344
        },
        {
            "buffer" : 0,
            "byteLength" : 10284,
            "byteOffset" : 41628
        },
        {
            "buffer" : 0,
            "byteLength" : 6856,
            "byteOffset" : 51912
        },
        {
            "buffer" : 0,
            "byteLength" : 7440,
            "byteOffset" : 58768
        },
        {
            "buffer" : 0,
            "byteLength" : 5076,
            "byteOffset" : 66208
        },
        {
            "buffer" : 0,
            "byteLength" : 5076,
            "byteOffset" : 71284
        },
        {
            "buffer" : 0,
            "byteLength" : 3384,
            "byteOffset" : 76360
        },
        {
            "buffer" : 0,
            "byteLength" : 2868,
            "byteOffset" : 79744
        },
        {
            "buffer" : 0,
            "byteLength" : 624,
            "byteOffset" : 82612
        },
        {
            "buffer" : 0,
            "byteLength" : 624,
            "byteOffset" : 83236
        },
        {
            "buffer" : 0,
            "byteLength" : 416,
            "byteOffset" : 83860
        },
        {
            "buffer" : 0,
            "byteLength" : 240,
            "byteOffset" : 84276
        }
    ],
    "buffers" : [
        {
            "byteLength" : 84516,
            "uri" : "HoverRacer.bin"
        }
    ]
}
